<?xml version="1.0" encoding="utf-8"?>
<!-- Generator: Adobe Illustrator 17.0.0, SVG Export Plug-In . SVG Version: 6.00 Build 0)  -->
<!DOCTYPE svg PUBLIC "-//W3C//DTD SVG 1.1//EN" "http://www.w3.org/Graphics/SVG/1.1/DTD/svg11.dtd">
<svg version="1.1" id="Livello_1" xmlns="http://www.w3.org/2000/svg" xmlns:xlink="http://www.w3.org/1999/xlink" x="0px" y="0px"
	 width="399.488px" height="399.466px" viewBox="181.575 77.971 399.488 399.466"
	 enable-background="new 181.575 77.971 399.488 399.466" xml:space="preserve">
<path fill="#00AEEF" d="M581.063,277.713c0,110.314-89.438,199.724-199.746,199.724s-199.742-89.41-199.742-199.724
	c0-110.31,89.435-199.742,199.742-199.742S581.063,167.404,581.063,277.713z"/>
<path fill="#D1D3D4" d="M305.659,174.707c0,13.015-10.552,23.573-23.571,23.573c-13.019,0-23.576-10.559-23.576-23.573
	c0-13.018,10.558-23.568,23.576-23.568C295.107,151.138,305.659,161.689,305.659,174.707z"/>
<path fill="#99DAF4" d="M315.659,241.916c0,18.533-15.031,33.571-33.571,33.571c-18.539,0-33.571-15.038-33.571-33.571
	c0-18.547,15.032-33.577,33.571-33.577C300.628,208.338,315.659,223.369,315.659,241.916z"/>
<path fill="#FFFFFF" d="M295.995,309.072c0,7.674-6.227,13.896-13.907,13.896c-7.68,0-13.903-6.223-13.903-13.896
	c0-7.686,6.224-13.91,13.903-13.91C289.769,295.163,295.995,301.387,295.995,309.072z"/>
<path fill="#D1D3D4" d="M307.938,376.217c0,14.266-11.569,25.855-25.844,25.855c-14.287,0-25.857-11.59-25.857-25.855
	c0-14.279,11.57-25.869,25.857-25.869C296.369,350.348,307.938,361.938,307.938,376.217z"/>
<path fill="#D1D3D4" d="M353.844,208.338c0,7.349-5.962,13.307-13.307,13.307c-7.356,0-13.31-5.958-13.31-13.307
	s5.953-13.308,13.31-13.308C347.882,195.031,353.844,200.99,353.844,208.338z"/>
<path fill="#FFFFFF" d="M418.144,258.411c0,18.549-15.046,33.577-33.581,33.577c-18.544,0-33.575-15.028-33.575-33.577
	c0-18.541,15.031-33.578,33.575-33.578C403.098,224.833,418.144,239.87,418.144,258.411z"/>
<path fill="#D1D3D4" d="M445.077,309.057c0,9.248-7.494,16.723-16.723,16.723c-9.243,0-16.738-7.475-16.738-16.723
	c0-9.227,7.495-16.719,16.738-16.719C437.583,292.337,445.077,299.83,445.077,309.057z"/>
<path fill="#D1D3D4" d="M498.805,174.738c0,7.281-5.91,13.182-13.204,13.182c-7.28,0-13.173-5.9-13.173-13.182
	c0-7.286,5.893-13.187,13.173-13.187C492.895,161.551,498.805,167.452,498.805,174.738z"/>
<path fill="#99DAF4" d="M514.117,241.947c0,15.739-12.764,28.501-28.517,28.501c-15.737,0-28.505-12.762-28.505-28.501
	c0-15.755,12.768-28.518,28.505-28.518C501.354,213.429,514.117,226.192,514.117,241.947z"/>
<path fill="#FFFFFF" d="M503.633,309.086c0-9.949-8.061-18.028-18.032-18.028c-9.938,0-18.017,8.079-18.017,18.028
	c0,9.955,8.079,18.018,18.017,18.018C495.572,327.104,503.633,319.041,503.633,309.086z"/>
<path fill="#99DAF4" d="M513.662,376.24c0,15.484-12.564,28.047-28.045,28.047c-15.501,0-28.067-12.563-28.067-28.047
	c0-15.496,12.566-28.049,28.067-28.049C501.098,348.191,513.662,360.744,513.662,376.24z"/>
</svg>
